# xmcd
#
# Track frame offsets: 
#        150
#        13263
#        30766
#        44300
#        62441
#        75346
#        88511
#        103428
#        115792
#        130078
#        143836
#        156608
#        171374
#
# Disc length: 2417 seconds
#
# Revision: 0
# Processed by: cddbd v1.5.2PL0 Copyright (c) Steve Scherf et al.
# Submitted via: ExactAudioCopyFreeDBPlugin 1.0
#
DISCID=a3096f0d
DTITLE=Julie Miller - Orphans and Angels
DYEAR=1900
DGENRE=
TTITLE0=River Where Mercy Flows
TTITLE1=Put A Little Love In Your Heart
TTITLE2=Mercy's Child
TTITLE3=Precious To God
TTITLE4=S.O.S
TTITLE5=All My Tears
TTITLE6=Treasure Of The Broken Land
TTITLE7=Jesus In Your Eyes
TTITLE8=Any Lie
TTITLE9=Angels dance
TTITLE10=Love And Affection
TTITLE11=Nobody But You
TTITLE12=Praise To The Lord, Amen
EXTD=
EXTT0=
EXTT1=
EXTT2=
EXTT3=
EXTT4=
EXTT5=
EXTT6=
EXTT7=
EXTT8=
EXTT9=
EXTT10=
EXTT11=
EXTT12=
PLAYORDER=
